<?xml version="1.0" encoding="utf-8"?><svg version="1.1" xmlns="http://www.w3.org/2000/svg" xmlns:xlink="http://www.w3.org/1999/xlink" viewBox="0 0 177 182"><path fill="#ffffff" d="M177,103.232l-11.934-5.657c-4.062-13.737-16.678-23.762-31.731-23.762c-16.058,0-29.403,11.405-32.476,26.555 c-3.105-2.671-7.076-4.304-11.483-4.47c-4.935-0.186-9.478,1.5-12.94,4.51c-3.058-15.17-16.454-26.595-32.525-26.595 c-15.054,0-27.745,10.024-31.807,23.762L0,103.232v7.535l11.948,5.104c3.881,14.021,16.722,24.313,31.977,24.313 c16.757,0,30.606-12.42,32.859-28.558c1.459-5.711,6.511-9.505,12.377-9.286c5.418,0.205,9.886,3.773,11.351,8.891 c2.079,16.328,16.024,28.953,32.918,28.953c15.256,0,27.914-10.293,31.795-24.313L177,110.768V103.232z M43.916,132.293 c-13.969,0-25.293-11.325-25.293-25.293s11.325-25.293,25.293-25.293S69.21,93.031,69.21,107S57.885,132.293,43.916,132.293z M133.43,132.293c-13.969,0-25.293-11.325-25.293-25.293s11.325-25.293,25.293-25.293c13.969,0,25.295,11.324,25.295,25.293 S147.398,132.293,133.43,132.293z"/><path fill="#ffffff" d="M15.097,167.762c-0.943-0.377-1.414-0.57-2.354-0.957c2.131-5.148,3.196-7.723,5.328-12.869 c0.874,0.363,1.312,0.543,2.188,0.891C18.195,160,17.161,162.588,15.097,167.762z"/><path fill="#ffffff" d="M39.505,161.311c-1.486,5.369-2.228,8.051-3.712,13.42c-0.492-0.135-0.738-0.203-1.228-0.34 c-0.185-0.053-0.333-0.129-0.447-0.227c-0.114-0.096-0.209-0.229-0.287-0.398c-2.162-4.715-3.156-7.084-4.965-11.838 c-0.04,0.186-0.084,0.367-0.133,0.543c-0.049,0.18-0.097,0.34-0.146,0.486c-1.163,3.473-1.746,5.209-2.909,8.684 c-0.839-0.283-1.26-0.424-2.098-0.715c1.828-5.262,2.742-7.893,4.57-13.154c0.461,0.16,0.691,0.238,1.154,0.396 c0.095,0.031,0.176,0.064,0.239,0.096c0.063,0.029,0.12,0.068,0.169,0.111c0.048,0.043,0.088,0.1,0.124,0.164 c0.034,0.066,0.067,0.145,0.1,0.238c1.758,4.738,2.724,7.104,4.836,11.805c0.035-0.197,0.075-0.391,0.118-0.578 c0.044-0.189,0.088-0.365,0.135-0.525c1.007-3.49,1.51-5.234,2.516-8.725C38.325,160.984,38.717,161.094,39.505,161.311z"/><path fill="#ffffff" d="M54.488,167.213c-0.094,0.102-0.186,0.17-0.274,0.209c-0.089,0.039-0.192,0.049-0.311,0.025 c-0.124-0.023-0.254-0.102-0.39-0.234c-0.135-0.131-0.304-0.279-0.505-0.447c-0.202-0.166-0.45-0.332-0.736-0.498 c-0.288-0.168-0.644-0.289-1.067-0.377c-0.392-0.082-0.746-0.105-1.063-0.074s-0.596,0.109-0.835,0.236 c-0.239,0.125-0.437,0.293-0.588,0.502c-0.151,0.207-0.257,0.445-0.316,0.717c-0.076,0.346-0.045,0.654,0.098,0.926 c0.142,0.271,0.354,0.525,0.635,0.756c0.28,0.23,0.611,0.451,0.991,0.658c0.382,0.207,0.771,0.422,1.168,0.646 c0.397,0.225,0.782,0.467,1.158,0.723s0.698,0.549,0.967,0.883c0.269,0.33,0.466,0.711,0.59,1.141s0.137,0.928,0.035,1.49 c-0.111,0.609-0.328,1.16-0.653,1.65c-0.325,0.492-0.741,0.895-1.25,1.209s-1.104,0.523-1.786,0.625s-1.434,0.068-2.249-0.102 c-0.48-0.102-0.938-0.242-1.375-0.426c-0.438-0.184-0.846-0.398-1.223-0.645c-0.378-0.246-0.722-0.521-1.03-0.824 c-0.308-0.301-0.572-0.621-0.792-0.957c0.379-0.355,0.569-0.535,0.945-0.891c0.082-0.074,0.178-0.125,0.286-0.154 c0.107-0.027,0.217-0.029,0.333-0.002c0.156,0.037,0.317,0.143,0.479,0.32c0.161,0.18,0.358,0.379,0.595,0.6 c0.235,0.221,0.531,0.439,0.887,0.658c0.356,0.221,0.803,0.385,1.343,0.496c0.875,0.184,1.597,0.123,2.153-0.174 c0.556-0.299,0.898-0.793,1.031-1.484c0.075-0.385,0.04-0.719-0.11-1.002c-0.149-0.281-0.372-0.535-0.661-0.764 c-0.289-0.23-0.626-0.441-1.015-0.641c-0.389-0.199-0.783-0.408-1.18-0.629c-0.396-0.219-0.782-0.461-1.152-0.723 c-0.372-0.264-0.684-0.57-0.938-0.922c-0.254-0.352-0.429-0.756-0.527-1.213c-0.098-0.455-0.074-0.99,0.068-1.607 c0.113-0.488,0.324-0.939,0.628-1.354c0.305-0.412,0.688-0.75,1.147-1.02s0.99-0.451,1.592-0.545 c0.604-0.094,1.26-0.066,1.971,0.08c0.802,0.164,1.513,0.436,2.138,0.812c0.625,0.377,1.139,0.836,1.547,1.381 C54.942,166.635,54.792,166.83,54.488,167.213z"/><path fill="#ffffff" d="M67.485,166.768c0.924,0.109,1.711,0.301,2.37,0.582s1.191,0.633,1.6,1.055c0.409,0.424,0.702,0.914,0.875,1.469 c0.171,0.555,0.233,1.156,0.178,1.805c-0.058,0.662-0.229,1.258-0.514,1.787c-0.286,0.529-0.683,0.967-1.191,1.318 c-0.508,0.35-1.125,0.6-1.851,0.75c-0.726,0.15-1.557,0.172-2.49,0.064c-0.881-0.104-1.322-0.156-2.202-0.268 c-0.255,1.996-0.381,2.998-0.637,4.996c-0.987-0.125-1.479-0.191-2.465-0.332c0.775-5.516,1.162-8.273,1.935-13.789 C64.847,166.453,65.726,166.566,67.485,166.768z M66.668,173.82c0.531,0.062,1.006,0.051,1.423-0.033 c0.418-0.084,0.772-0.23,1.064-0.438c0.292-0.205,0.521-0.469,0.689-0.791c0.168-0.318,0.274-0.684,0.314-1.094 c0.041-0.404,0.01-0.773-0.087-1.109c-0.098-0.332-0.266-0.623-0.502-0.875c-0.235-0.252-0.544-0.457-0.924-0.617 c-0.38-0.162-0.834-0.271-1.364-0.332c-0.848-0.1-1.274-0.15-2.121-0.258c-0.27,2.113-0.404,3.17-0.674,5.283 C65.359,173.666,65.794,173.719,66.668,173.82z"/><path fill="#ffffff" d="M88.293,180.096c-0.007,0.73-0.011,1.098-0.017,1.828c-3.812-0.01-5.718-0.061-9.527-0.252 c0.28-5.564,0.422-8.344,0.703-13.908c3.541,0.18,5.314,0.227,8.859,0.236c-0.002,0.73-0.002,1.096-0.004,1.828 c-2.644-0.008-3.967-0.033-6.608-0.135c-0.064,1.678-0.095,2.516-0.159,4.193c2.16,0.082,3.241,0.107,5.401,0.129 c-0.006,0.707-0.012,1.062-0.018,1.77c-2.181-0.021-3.27-0.047-5.45-0.129c-0.065,1.719-0.099,2.578-0.164,4.299 C84.103,180.061,85.499,180.09,88.293,180.096z"/><path fill="#ffffff" d="M106.569,178.008c0.133-0.012,0.249,0.027,0.355,0.113c0.425,0.352,0.639,0.529,1.065,0.879 c-0.548,0.74-1.257,1.338-2.127,1.785c-0.869,0.447-1.936,0.719-3.194,0.807c-1.117,0.078-2.137-0.035-3.057-0.336 s-1.708-0.754-2.365-1.355c-0.657-0.6-1.168-1.332-1.535-2.189c-0.367-0.859-0.564-1.811-0.598-2.854 c-0.035-1.043,0.106-2.008,0.421-2.893c0.314-0.887,0.771-1.654,1.365-2.311c0.593-0.654,1.308-1.178,2.147-1.574 c0.84-0.395,1.772-0.625,2.804-0.699c1.021-0.072,1.938,0.018,2.751,0.273c0.813,0.258,1.538,0.625,2.171,1.107 c-0.265,0.449-0.398,0.674-0.666,1.123c-0.047,0.076-0.104,0.143-0.171,0.201c-0.069,0.059-0.169,0.092-0.295,0.104 c-0.133,0.012-0.291-0.035-0.471-0.139c-0.182-0.105-0.408-0.215-0.683-0.336c-0.275-0.123-0.614-0.229-1.019-0.316 c-0.405-0.088-0.902-0.109-1.491-0.066c-0.683,0.049-1.302,0.203-1.858,0.469c-0.558,0.268-1.032,0.633-1.423,1.098 c-0.392,0.467-0.688,1.023-0.889,1.674c-0.204,0.648-0.287,1.377-0.25,2.189c0.038,0.818,0.194,1.541,0.473,2.17 s0.649,1.152,1.111,1.57c0.463,0.418,0.996,0.727,1.604,0.92c0.608,0.197,1.257,0.271,1.942,0.221 c0.419-0.029,0.796-0.076,1.124-0.146c0.33-0.066,0.629-0.156,0.902-0.273c0.272-0.117,0.525-0.254,0.762-0.418 c0.234-0.162,0.465-0.355,0.689-0.584C106.296,178.09,106.432,178.02,106.569,178.008z"/><path fill="#ffffff" d="M123.15,166.691c-1.768,0.33-2.652,0.484-4.425,0.773c0.772,4.754,1.159,7.131,1.932,11.885 c-0.979,0.158-1.468,0.234-2.448,0.381c-0.714-4.762-1.071-7.145-1.785-11.906c-1.779,0.266-2.67,0.389-4.453,0.611 c-0.095-0.748-0.143-1.121-0.236-1.869c4.441-0.557,6.66-0.902,11.069-1.73C122.943,165.578,123.012,165.949,123.15,166.691z"/><path fill="#ffffff" d="M144.026,166.824c0.298,0.988,0.399,1.951,0.3,2.887c-0.1,0.938-0.383,1.807-0.852,2.598 c-0.466,0.787-1.108,1.482-1.925,2.074c-0.815,0.594-1.785,1.037-2.904,1.328c-1.112,0.289-2.173,0.369-3.172,0.246 c-0.998-0.123-1.897-0.418-2.691-0.879c-0.795-0.463-1.461-1.082-2.002-1.854s-0.918-1.664-1.139-2.67 c-0.221-1.008-0.247-1.977-0.092-2.902c0.154-0.928,0.473-1.764,0.951-2.521c0.477-0.758,1.101-1.41,1.871-1.963 c0.771-0.553,1.67-0.957,2.703-1.225c1.039-0.27,2.026-0.352,2.971-0.244c0.943,0.107,1.809,0.373,2.592,0.803 c0.785,0.432,1.471,1.012,2.059,1.746C143.283,164.979,143.729,165.836,144.026,166.824z M141.654,167.521 c-0.221-0.768-0.53-1.426-0.925-1.979c-0.395-0.551-0.855-0.982-1.382-1.297s-1.107-0.51-1.747-0.584 c-0.637-0.072-1.316-0.018-2.035,0.17c-0.713,0.184-1.327,0.463-1.85,0.836c-0.522,0.377-0.938,0.83-1.246,1.359 c-0.311,0.531-0.506,1.133-0.585,1.807c-0.08,0.676-0.031,1.4,0.149,2.18c0.184,0.785,0.46,1.463,0.835,2.029 c0.374,0.568,0.829,1.018,1.36,1.344c0.531,0.328,1.131,0.529,1.797,0.607c0.666,0.076,1.377,0.02,2.129-0.176 c0.759-0.197,1.413-0.49,1.957-0.885c0.543-0.391,0.969-0.857,1.272-1.4c0.305-0.545,0.481-1.156,0.53-1.832 C141.964,169.021,141.877,168.295,141.654,167.521z"/><path fill="#ffffff" d="M164.788,166.805c-0.836,0.344-1.254,0.516-2.093,0.852c-0.414,0.168-0.773,0.143-1.073-0.072 c-2.036-1.213-3.04-1.83-5.019-3.094c-0.169-0.109-0.331-0.174-0.486-0.191s-0.365,0.023-0.627,0.121 c-0.511,0.188-0.767,0.281-1.279,0.465c0.761,2.111,1.142,3.166,1.901,5.277c-0.947,0.342-1.424,0.51-2.375,0.84 c-1.821-5.264-2.731-7.898-4.553-13.162c1.604-0.555,2.403-0.842,3.995-1.434c0.889-0.332,1.686-0.535,2.396-0.609 c0.707-0.074,1.332-0.031,1.872,0.123c0.539,0.154,0.999,0.418,1.379,0.785s0.682,0.824,0.905,1.375 c0.183,0.447,0.28,0.895,0.293,1.342c0.012,0.447-0.053,0.885-0.2,1.311c-0.146,0.428-0.372,0.836-0.683,1.229 c-0.31,0.393-1.161,1.086-1.161,1.086c0.005,0.023,0.666,0.176,0.979,0.377C161.254,164.809,162.421,165.484,164.788,166.805z  M155.448,162.68c0.521-0.193,0.951-0.422,1.294-0.689c0.344-0.266,0.604-0.553,0.778-0.863c0.177-0.311,0.271-0.635,0.286-0.977 c0.014-0.34-0.046-0.688-0.184-1.043c-0.277-0.709-0.737-1.148-1.375-1.332c-0.638-0.182-1.452-0.084-2.452,0.287 c-0.72,0.268-1.082,0.398-1.804,0.662c0.664,1.844,0.996,2.768,1.662,4.613C154.372,163.08,154.732,162.945,155.448,162.68z"/><path fill="#ffffff" d="M88.958,47.786c-19.914,0-38.038,0.722-51.357,2.734L17.726,66.81c1.274-0.158,2.548-0.316,3.822-0.474 c11.671-1.454,23.584-3.599,35.428-3.667c6.631-0.038,13.263-0.259,19.895-0.289c3.977-0.018,7.955,0.136,11.932,0.115 c3.985,0.021,7.933-0.133,11.91-0.115c6.631,0.03,13.252,0.25,19.883,0.289c11.844,0.068,23.752,2.213,35.424,3.667 c1.272,0.158,2.541,0.316,3.815,0.474L139.96,50.519C126.771,48.479,108.816,47.786,88.958,47.786z"/><path fill="#ffffff" d="M89.661,35.587c16.928,0,32.356,0.808,44.608,2.284c-1.535-5.732-3.045-11.47-4.645-17.191 c-0.578-2.068-0.686-4.921-2.533-6.612c-2.004-1.832-5.708-2.673-8.474-3.66c-2.688-0.959-5.815-1.978-8.495-2.952 c-5.838-2.122-11.641-4.268-17.475-6.398C92.34,0.946,88.802,0.241,88.802,0c0,0.241-3.561,0.946-3.87,1.059 c-5.833,2.13-11.657,4.276-17.495,6.398c-2.68,0.974-5.808,1.993-8.496,2.952c-2.767,0.987-6.47,1.828-8.474,3.66 c-1.849,1.691-1.956,4.544-2.534,6.612c-1.607,5.754-3.126,11.527-4.671,17.292C56.071,36.426,72.245,35.587,89.661,35.587z"/><path fill="#ffffff" opacity=".7" d="M89.617,37.919c-17.835,0-34.237,0.579-47.036,2.146l-3.852,7.875c13.33-2.028,31.005-3.204,50.185-3.204 c19.46,0,36.941,1.231,49.888,3.326l-4.006-8.19C122.357,38.432,106.691,37.919,89.617,37.919z"/></svg>